<?xml version="1.0" encoding="UTF-8"?>
<svg xmlns="http://www.w3.org/2000/svg" xmlns:xlink="http://www.w3.org/1999/xlink" width="24px" height="24px" viewBox="0 0 24 24" version="1.1">
<g id="surface1">
<path style=" stroke:none;fill-rule:nonzero;fill:rgb(0%,0%,0%);fill-opacity:1;" d="M 3.601562 3.601562 C 1.800781 5.300781 1.398438 9 3 9 C 3.601562 9 4 7.898438 4 6.5 C 4 4.5 4.5 4 6.5 4 C 7.898438 4 9 3.5 9 3 C 9 1.398438 5.300781 1.800781 3.601562 3.601562 Z M 3.601562 3.601562 "/>
<path style=" stroke:none;fill-rule:nonzero;fill:rgb(0%,0%,0%);fill-opacity:1;" d="M 15 3 C 15 3.5 16.101562 4 17.5 4 C 19.5 4 20 4.5 20 6.5 C 20 7.898438 20.5 9 21 9 C 22.601562 9 22.199219 5.300781 20.398438 3.601562 C 18.699219 1.800781 15 1.398438 15 3 Z M 15 3 "/>
<path style=" stroke:none;fill-rule:nonzero;fill:rgb(0%,0%,0%);fill-opacity:1;" d="M 6.398438 7.300781 C 6.101562 8.101562 6 10.699219 6.199219 13.101562 L 6.5 17.5 L 17.5 17.5 L 17.5 6.5 L 12.199219 6.199219 C 8.398438 6 6.800781 6.300781 6.398438 7.300781 Z M 16 12.5 L 16 17 L 8 17 L 8 8 L 16 8 Z M 16 12.5 "/>
<path style=" stroke:none;fill-rule:nonzero;fill:rgb(0%,0%,0%);fill-opacity:1;" d="M 2 16.898438 C 2 18 2.699219 19.601562 3.601562 20.398438 C 5.300781 22.199219 9 22.601562 9 21 C 9 20.398438 7.898438 20 6.5 20 C 4.5 20 4 19.5 4 17.5 C 4 16.101562 3.601562 15 3 15 C 2.5 15 2 15.898438 2 16.898438 Z M 2 16.898438 "/>
<path style=" stroke:none;fill-rule:nonzero;fill:rgb(0%,0%,0%);fill-opacity:1;" d="M 20 17.5 C 20 19.5 19.5 20 17.5 20 C 16.101562 20 15 20.398438 15 21 C 15 22.601562 18.699219 22.199219 20.398438 20.398438 C 22.199219 18.699219 22.601562 15 21 15 C 20.5 15 20 16.101562 20 17.5 Z M 20 17.5 "/>
</g>
</svg>
