<?xml version="1.0" encoding="UTF-8"?>
<svg xmlns="http://www.w3.org/2000/svg" xmlns:xlink="http://www.w3.org/1999/xlink" width="24px" height="24px" viewBox="0 0 24 24" version="1.1">
<g id="surface1">
<path style=" stroke:none;fill-rule:nonzero;fill:rgb(0%,0%,0%);fill-opacity:1;" d="M 17.230469 0.546875 C 15.1875 0.546875 13.273438 1.472656 12 3.019531 C 10.726562 1.46875 8.8125 0.546875 6.769531 0.546875 C 3.039062 0.546875 0 3.582031 0 7.316406 C 0 10.242188 1.742188 13.621094 5.179688 17.367188 C 7.828125 20.25 10.707031 22.480469 11.523438 23.097656 L 12 23.453125 L 12.476562 23.097656 C 13.292969 22.480469 16.171875 20.25 18.820312 17.367188 C 22.257812 13.621094 24 10.242188 24 7.316406 C 24 3.582031 20.960938 0.546875 17.230469 0.546875 Z M 17.652344 16.296875 C 15.476562 18.667969 13.136719 20.585938 12 21.46875 C 10.863281 20.585938 8.523438 18.667969 6.347656 16.296875 C 3.230469 12.902344 1.582031 9.796875 1.582031 7.316406 C 1.582031 4.457031 3.910156 2.128906 6.769531 2.128906 C 8.652344 2.128906 10.390625 3.152344 11.308594 4.804688 L 12 6.054688 L 12.691406 4.804688 C 13.609375 3.15625 15.347656 2.128906 17.230469 2.128906 C 20.089844 2.128906 22.417969 4.457031 22.417969 7.316406 C 22.417969 9.796875 20.769531 12.902344 17.652344 16.296875 Z M 17.652344 16.296875 "/>
</g>
</svg>
